# Blender 3.6.1
# www.blender.org
mtllib banana.mtl
o banana
v 0.000000 -0.766548 -0.766548
v 0.000000 0.766548 -0.766548
v 0.599311 -0.766548 -0.477935
v 0.599311 0.766548 -0.477935
v 0.747329 -0.766548 0.170573
v 0.747329 0.766548 0.170573
v 0.332593 -0.766548 0.690636
v 0.332593 0.766548 0.690636
v -0.332593 -0.766548 0.690636
v -0.332593 0.766548 0.690636
v -0.747329 -0.766548 0.170573
v -0.747329 0.766548 0.170573
v -0.599312 -0.766548 -0.477935
v -0.599312 0.766548 -0.477935
v 0.567750 2.139262 -0.326534
v 0.043897 2.139262 -0.578809
v 0.697131 2.139262 0.240321
v 0.334614 2.139262 0.694904
v -0.246819 2.139262 0.694904
v -0.609337 2.139262 0.240321
v -0.479956 2.139262 -0.326534
v 0.554211 3.065058 -0.079803
v 0.126930 3.109361 -0.283738
v 0.658585 3.009702 0.380808
v 0.361457 2.984976 0.751247
v -0.113431 3.009499 0.752564
v -0.408477 3.064806 0.383769
v -0.301507 3.109248 -0.077429
v 0.541842 3.706742 0.361927
v 0.276273 3.734277 0.235174
v 0.595872 3.691184 0.653655
v 0.419083 3.684441 0.872355
v 0.137878 3.691117 0.874197
v -0.056499 3.706585 0.650051
v 0.009986 3.734207 0.363402
v 0.447820 4.089561 0.642967
v 0.352816 4.136348 0.602522
v 0.461416 4.034908 0.736900
v 0.390468 4.011713 0.813461
v 0.286334 4.034719 0.821128
v 0.221332 4.089307 0.751941
v 0.248915 4.136227 0.652521
v 0.457296 4.202746 0.709306
v 0.381276 4.253006 0.686516
v 0.467430 4.139947 0.778431
v 0.404047 4.111899 0.841837
v 0.314875 4.139722 0.851780
v 0.267064 4.202466 0.800771
v 0.296615 4.252882 0.727222
v -0.002236 -1.549648 -0.770991
v 0.597075 -1.549648 -0.482377
v 0.745093 -1.549648 0.166131
v 0.330357 -1.549648 0.686194
v -0.334829 -1.549648 0.686194
v -0.749565 -1.549648 0.166131
v -0.601548 -1.549648 -0.482377
v 0.043037 -2.493639 -0.676228
v 0.642349 -2.493639 -0.387615
v 0.790367 -2.493639 0.260893
v 0.375630 -2.493639 0.780956
v -0.289555 -2.493639 0.780956
v -0.704292 -2.493639 0.260893
v -0.556274 -2.493639 -0.387615
v 0.119597 -3.249169 -0.382644
v 0.614474 -3.249169 -0.144324
v 0.736699 -3.249169 0.391177
v 0.394234 -3.249169 0.820615
v -0.155039 -3.249169 0.820615
v -0.497504 -3.249169 0.391177
v -0.375280 -3.249169 -0.144324
v 0.253208 -3.768595 0.105550
v 0.584310 -3.768952 0.265599
v 0.662029 -3.773561 0.625392
v 0.437083 -3.768595 0.911158
v 0.073372 -3.773531 0.908877
v -0.159365 -3.768997 0.623782
v -0.078124 -3.768595 0.265110
v 0.416687 -4.122153 0.523598
v 0.686889 -4.126235 0.661722
v 0.747048 -4.138714 0.963198
v 0.567507 -4.124730 1.183838
v 0.282910 -4.138632 1.186658
v 0.085032 -4.126343 0.951744
v 0.145358 -4.122153 0.654263
v 0.601147 -4.447854 1.114788
v 0.714988 -4.447907 1.175473
v 0.746512 -4.447971 1.303703
v 0.670512 -4.447975 1.399851
v 0.547977 -4.447971 1.399362
v 0.467416 -4.447908 1.294753
v 0.490959 -4.447854 1.167855
v 0.598266 -4.447812 1.013165
v 0.786144 -4.447855 1.108357
v 0.839122 -4.447962 1.323718
v 0.709834 -4.447943 1.481480
v 0.505891 -4.447962 1.484248
v 0.370616 -4.447855 1.308543
v 0.413327 -4.447812 1.102232
v 0.863532 -5.177341 1.646886
v 0.969479 -5.177334 1.671605
v 0.980042 -5.177332 1.762964
v 0.886619 -5.177328 1.850813
v 0.759543 -5.177322 1.868965
v 0.694519 -5.177321 1.803783
v 0.741160 -5.177334 1.705702
v 0.639451 -4.754779 1.472429
v 0.606160 -4.754778 1.582501
v 0.673886 -4.754778 1.667181
v 0.795549 -4.754780 1.660824
v 0.876362 -4.754782 1.569739
v 0.852322 -4.754782 1.464022
v 0.745494 -4.754781 1.421382
v 0.706299 -5.057718 1.642576
v 0.726037 -5.057709 1.816281
v 0.959976 -5.057720 1.703818
v 0.836128 -5.057724 1.580171
v 0.657044 -5.057707 1.747114
v 0.860859 -5.057714 1.797022
v 0.948763 -5.057721 1.606878
vn 0.4339 -0.0000 -0.9010
vn 0.9749 -0.0000 -0.2225
vn 0.7818 -0.0000 0.6235
vn -0.0000 -0.0000 1.0000
vn -0.7818 -0.0000 0.6235
vn 0.4313 0.1087 -0.8956
vn -0.9749 -0.0000 -0.2225
vn -0.4339 -0.0000 -0.9010
vn -0.0000 -0.0057 1.0000
vn 0.7803 -0.0660 0.6219
vn 0.7818 -0.0031 0.6235
vn -0.9692 0.1087 -0.2212
vn -0.0000 -0.0031 1.0000
vn -0.4299 0.1358 -0.8926
vn 0.9739 0.0469 -0.2223
vn -0.7810 0.0469 0.6228
vn -0.3304 0.6484 -0.6858
vn 0.4293 0.2336 -0.8724
vn -0.9499 0.2332 -0.2083
vn -0.0003 -0.0663 0.9978
vn 0.9732 0.0751 -0.2174
vn -0.4143 0.2971 -0.8603
vn -0.7768 0.0745 0.6254
vn -0.8118 0.5776 -0.0863
vn -0.7526 0.1556 0.6398
vn 0.7721 -0.1717 0.6119
vn 0.4108 0.5223 -0.7473
vn -0.8410 0.5213 -0.1448
vn -0.0030 -0.1725 0.9850
vn 0.9693 0.1572 -0.1893
vn -0.7295 -0.0008 0.6839
vn 0.0365 0.1582 0.9867
vn 0.9334 0.3442 -0.1010
vn -0.3218 0.6713 -0.6677
vn -0.6614 0.3434 0.6668
vn 0.7484 0.1585 0.6440
vn 0.4383 0.5782 -0.6882
vn 0.2961 0.7282 0.6181
vn 0.7418 -0.2786 0.6100
vn 0.5117 0.4096 -0.7553
vn -0.9101 0.4082 -0.0709
vn 0.0141 -0.2791 0.9602
vn 0.9896 0.0007 -0.1435
vn -0.3467 0.6023 -0.7191
vn -0.9726 -0.0689 -0.2220
vn -0.4339 0.0064 -0.9010
vn 0.9749 -0.0015 -0.2225
vn -0.7818 -0.0013 0.6235
vn 0.4339 0.0039 -0.9010
vn 0.7818 -0.0058 0.6235
vn -0.9749 0.0040 -0.2225
vn 0.7808 0.0519 0.6226
vn -0.0000 0.0999 0.9950
vn 0.9746 0.0244 -0.2225
vn -0.4312 -0.1106 -0.8954
vn -0.7816 0.0251 0.6233
vn 0.7779 0.0996 0.6204
vn 0.4328 -0.0695 -0.8988
vn -0.3132 -0.6919 -0.6505
vn 0.4149 -0.2927 -0.8615
vn -0.9325 -0.2919 -0.2128
vn -0.0000 0.0524 0.9986
vn 0.9693 -0.1070 -0.2212
vn -0.4037 -0.3666 -0.8382
vn -0.7774 -0.1059 0.6200
vn -0.7398 -0.6525 -0.1642
vn -0.7597 -0.2247 0.6102
vn 0.7730 0.1669 0.6121
vn 0.3498 -0.5924 -0.7258
vn -0.7863 -0.5913 -0.1792
vn -0.0034 0.1680 0.9858
vn 0.9502 -0.2270 -0.2134
vn 0.5796 0.6808 0.4478
vn -0.0168 0.6016 0.7986
vn 0.9781 0.0481 -0.2027
vn -0.2689 -0.7847 -0.5585
vn -0.7683 0.0521 0.6379
vn 0.6356 0.6005 0.4852
vn 0.3322 -0.6541 -0.6796
vn -0.8125 -0.4382 -0.3845
vn 0.2998 -0.7403 -0.6018
vn -0.6589 -0.7389 -0.1410
vn -0.0111 0.6819 0.7314
vn 0.9767 0.0234 -0.2132
vn -0.2303 -0.8475 -0.4783
vn -0.7758 0.0284 0.6303
vn -0.0000 -1.0000 -0.0006
vn 0.0002 -1.0000 -0.0005
vn 0.0002 -1.0000 0.0002
vn 0.0001 -1.0000 0.0002
vn -0.0006 -1.0000 -0.0002
vn -0.0004 -1.0000 -0.0004
vn -0.0002 -1.0000 -0.0004
vn -0.0000 -1.0000 0.0001
vn 0.1277 0.4295 0.8940
vn 0.9874 0.1092 -0.1142
vn -0.3712 -0.5157 -0.7722
vn -0.7035 0.1121 0.7018
vn 0.6188 0.4292 0.6580
vn 0.2058 -0.4391 -0.8745
vn 0.3500 -0.5644 -0.7477
vn 0.5784 0.6563 0.4844
vn -0.7690 0.2138 0.6025
vn -0.2912 -0.7412 -0.6049
vn 0.9512 0.2100 -0.2259
vn 0.0181 0.6569 0.7537
vn -0.8040 -0.5624 -0.1929
vn 0.2815 -0.3566 -0.8908
vn 0.6432 0.4382 0.6279
vn -0.7305 0.2119 0.6492
vn -0.3714 -0.5157 -0.7721
vn 0.9633 0.2097 -0.1676
vn 0.0893 0.4384 0.8943
vn -0.8726 -0.3550 -0.3356
vt 1.000000 0.500000
vt 1.000000 1.000000
vt 0.857143 1.000000
vt 0.857143 0.500000
vt 0.714286 1.000000
vt 0.714286 0.500000
vt 0.571429 1.000000
vt 0.571429 0.500000
vt 0.428571 1.000000
vt 0.428571 0.500000
vt 0.285714 1.000000
vt 0.285714 0.500000
vt 0.142857 1.000000
vt 0.142857 0.500000
vt 0.000000 1.000000
vt 0.000000 0.500000
vt 0.437640 0.399638
vt 0.250000 0.490000
vt 0.062360 0.399638
vt 0.016017 0.196595
vt 0.145868 0.033767
vt 0.354132 0.033767
vt 0.483983 0.196595
vt 0.610591 0.218181
vt 0.638203 0.339155
vt 0.610591 0.218181
vt 0.861797 0.339155
vt 0.750000 0.392994
vt 0.750000 0.490000
vt 0.937640 0.399638
vt 0.889409 0.218181
vt 0.983983 0.196595
vt 0.812043 0.121167
vt 0.854132 0.033767
vt 0.687957 0.121167
vt 0.645868 0.033767
vt 0.516017 0.196595
vt 0.562360 0.399638
vt 0.812043 0.121167
vt 0.687957 0.121167
vt 0.861797 0.339155
vt 0.889409 0.218181
vt 0.750000 0.392994
vt 0.687957 0.121167
vt 0.638203 0.339155
s 0
usemtl yellow.001
f 1/1/1 2/2/1 4/3/1 3/4/1
f 3/4/2 4/3/2 6/5/2 5/6/2
f 5/6/3 6/5/3 8/7/3 7/8/3
f 7/8/4 8/7/4 10/9/4 9/10/4
f 9/10/5 10/9/5 12/11/5 11/12/5
f 4/3/6 2/2/6 16/2/6 15/3/6
f 11/12/7 12/11/7 14/13/7 13/14/7
f 13/14/8 14/13/8 2/15/8 1/16/8
f 7/8/9 9/10/9 54/10/9 53/8/9
f 18/7/10 17/5/10 24/5/10 25/7/10
f 8/7/11 6/5/11 17/5/11 18/7/11
f 14/13/12 12/11/12 20/11/12 21/13/12
f 10/9/13 8/7/13 18/7/13 19/9/13
f 2/15/14 14/13/14 21/13/14 16/15/14
f 6/5/15 4/3/15 15/3/15 17/5/15
f 12/11/16 10/9/16 19/9/16 20/11/16
f 23/15/17 28/13/17 35/13/17 30/15/17
f 15/3/18 16/2/18 23/2/18 22/3/18
f 21/13/19 20/11/19 27/11/19 28/13/19
f 19/9/20 18/7/20 25/7/20 26/9/20
f 17/5/21 15/3/21 22/3/21 24/5/21
f 16/15/22 21/13/22 28/13/22 23/15/22
f 20/11/23 19/9/23 26/9/23 27/11/23
f 35/13/24 34/11/24 41/11/24 42/13/24
f 27/11/25 26/9/25 33/9/25 34/11/25
f 25/7/26 24/5/26 31/5/26 32/7/26
f 22/3/27 23/2/27 30/2/27 29/3/27
f 28/13/28 27/11/28 34/11/28 35/13/28
f 26/9/29 25/7/29 32/7/29 33/9/29
f 24/5/30 22/3/30 29/3/30 31/5/30
f 33/9/32 32/7/32 39/7/32 40/9/32
f 31/5/33 29/3/33 36/3/33 38/5/33
f 30/15/34 35/13/34 42/13/34 37/15/34
f 34/11/35 33/9/35 40/9/35 41/11/35
f 32/7/36 31/5/36 38/5/36 39/7/36
f 29/3/37 30/2/37 37/2/37 36/3/37
f 55/12/45 56/14/45 63/14/45 62/12/45
f 13/14/46 1/16/46 50/16/46 56/14/46
f 3/4/47 5/6/47 52/6/47 51/4/47
f 9/10/48 11/12/48 55/12/48 54/10/48
f 1/1/49 3/4/49 51/4/49 50/1/49
f 5/6/50 7/8/50 53/8/50 52/6/50
f 11/12/51 13/14/51 56/14/51 55/12/51
f 59/6/52 60/8/52 67/8/52 66/6/52
f 53/8/53 54/10/53 61/10/53 60/8/53
f 51/4/54 52/6/54 59/6/54 58/4/54
f 56/14/55 50/16/55 57/16/55 63/14/55
f 54/10/56 55/12/56 62/12/56 61/10/56
f 52/6/57 53/8/57 60/8/57 59/6/57
f 50/1/58 51/4/58 58/4/58 57/1/58
f 70/14/59 64/16/59 71/16/59 77/14/59
f 57/1/60 58/4/60 65/4/60 64/1/60
f 62/12/61 63/14/61 70/14/61 69/12/61
f 60/8/62 61/10/62 68/10/62 67/8/62
f 58/4/63 59/6/63 66/6/63 65/4/63
f 63/14/64 57/16/64 64/16/64 70/14/64
f 61/10/65 62/12/65 69/12/65 68/10/65
f 76/12/66 77/14/66 84/14/66 83/12/66
f 68/10/67 69/12/67 76/12/67 75/10/67
f 66/6/68 67/8/68 74/8/68 73/6/68
f 64/1/69 65/4/69 72/4/69 71/1/69
f 69/12/70 70/14/70 77/14/70 76/12/70
f 67/8/71 68/10/71 75/10/71 74/8/71
f 65/4/72 66/6/72 73/6/72 72/4/72
f 80/6/73 81/8/73 95/8/73 94/6/73
f 74/8/74 75/10/74 82/10/74 81/8/74
f 72/4/75 73/6/75 80/6/75 79/4/75
f 77/14/76 71/16/76 78/16/76 84/14/76
f 75/10/77 76/12/77 83/12/77 82/10/77
f 73/6/78 74/8/78 81/8/78 80/6/78
f 71/1/79 72/4/79 79/4/79 78/1/79
f 78/1/81 79/4/81 93/4/81 92/1/81
f 83/12/82 84/14/82 98/14/82 97/12/82
f 81/8/83 82/10/83 96/10/83 95/8/83
f 79/4/84 80/6/84 94/6/84 93/4/84
f 84/14/85 78/16/85 92/16/85 98/14/85
f 82/10/86 83/12/86 97/12/86 96/10/86
f 86/27/87 85/28/87 92/29/87 93/30/87
f 87/31/88 86/27/88 93/30/88 94/32/88
f 88/33/89 87/31/89 94/32/89 95/34/89
f 89/35/90 88/33/90 95/34/90 96/36/90
f 90/26/91 89/35/91 96/36/91 97/37/91
f 91/25/92 90/26/92 97/37/92 98/38/92
f 85/28/93 91/25/93 98/38/93 92/29/93
usemtl brown1
f 41/11/31 40/9/31 47/9/31 48/11/31
f 43/17/38 44/18/38 49/19/38 48/20/38 47/21/38 46/22/38 45/23/38
f 39/7/39 38/5/39 45/5/39 46/7/39
f 36/3/40 37/2/40 44/2/40 43/3/40
f 42/13/41 41/11/41 48/11/41 49/13/41
f 40/9/42 39/7/42 46/7/42 47/9/42
f 38/5/43 36/3/43 43/3/43 45/5/43
f 37/15/44 42/13/44 49/13/44 44/15/44
usemtl green.001
f 85/28/101 86/27/101 111/27/101 112/43/101
f 87/31/102 88/33/102 109/33/102 110/31/102
f 89/35/103 90/26/103 107/26/103 108/44/103
f 91/25/104 85/28/104 112/43/104 106/45/104
f 86/27/105 87/31/105 110/31/105 111/27/105
f 88/33/106 89/35/106 108/44/106 109/33/106
f 90/26/107 91/25/107 106/45/107 107/26/107
f 112/43/108 111/27/108 119/41/108 116/43/108
f 110/31/109 109/33/109 118/39/109 115/42/109
f 108/44/110 107/26/110 117/24/110 114/40/110
f 106/45/111 112/43/111 116/43/111 113/25/111
f 111/27/112 110/31/112 115/42/112 119/41/112
f 109/33/113 108/44/113 114/40/113 118/39/113
f 107/26/114 106/45/114 113/25/114 117/24/114
usemtl brown2
f 117/24/80 113/25/80 105/25/80 104/26/80
f 99/28/94 100/27/94 101/31/94 102/33/94 103/35/94 104/26/94 105/25/94
f 118/39/95 114/40/95 103/35/95 102/33/95
f 119/41/96 115/42/96 101/31/96 100/27/96
f 113/25/97 116/43/97 99/28/97 105/25/97
f 114/40/98 117/24/98 104/26/98 103/35/98
f 115/42/99 118/39/99 102/33/99 101/31/99
f 116/43/100 119/41/100 100/27/100 99/28/100
