# Blender 3.6.4
# www.blender.org
mtllib one_block.mtl
o Cube.005
v -0.535903 -1.471564 1.123444
v -0.535903 1.468436 1.123444
v -0.535903 -1.471564 -1.816556
v -0.535903 1.468436 -1.816556
v 2.404097 -1.471564 1.123444
v 2.404097 1.468436 1.123444
v 2.404097 -1.471564 -1.816556
v 2.404097 1.468436 -1.816556
v -0.565903 -1.501564 1.153444
v -0.565903 1.498436 1.153444
v -0.565903 -1.501564 -1.846556
v -0.565903 1.498436 -1.846556
v 2.434097 -1.501564 1.153444
v 2.434097 1.498436 1.153444
v 2.434097 -1.501564 -1.846556
v 2.434097 1.498436 -1.846556
vn -1.0000 -0.0000 -0.0000
vn -0.0000 -0.0000 -1.0000
vn 1.0000 -0.0000 -0.0000
vn -0.0000 -0.0000 1.0000
vn -0.0000 -1.0000 -0.0000
vn -0.0000 1.0000 -0.0000
vt 0.375000 0.000000
vt 0.625000 0.000000
vt 0.625000 0.250000
vt 0.375000 0.250000
vt 0.625000 0.500000
vt 0.375000 0.500000
vt 0.625000 0.750000
vt 0.375000 0.750000
vt 0.625000 1.000000
vt 0.375000 1.000000
vt 0.125000 0.500000
vt 0.125000 0.750000
vt 0.875000 0.500000
vt 0.875000 0.750000
s 0
usemtl Material.001
f 1/1/1 2/2/1 4/3/1 3/4/1
f 3/4/2 4/3/2 8/5/2 7/6/2
f 7/6/3 8/5/3 6/7/3 5/8/3
f 5/8/4 6/7/4 2/9/4 1/10/4
f 3/11/5 7/6/5 5/8/5 1/12/5
f 8/5/6 4/13/6 2/14/6 6/7/6
usemtl Outline
f 9/1/3 11/4/3 12/3/3 10/2/3
f 11/4/4 15/6/4 16/5/4 12/3/4
f 15/6/1 13/8/1 14/7/1 16/5/1
f 13/8/2 9/10/2 10/9/2 14/7/2
f 11/11/6 9/12/6 13/8/6 15/6/6
f 16/5/5 14/7/5 10/14/5 12/13/5
